<svg id="637c96d5-364a-4b30-a394-9158922dc0b4" data-name="Ğ¡Ğ»Ğ¾Ğ¹ 1" xmlns="http://www.w3.org/2000/svg"
     viewBox="0 0 120.22 120.23">
    <title>pause</title>
    <g fill="#fff">
    <path
          d="M638,1063a28,28,0,0,1,28,28v50.22a28,28,0,0,1-28,28H587.77a28,28,0,0,1-28-28V1091a28,28,0,0,1,28-28H638m0-7H587.77a35,35,0,0,0-35,35v50.23a35,35,0,0,0,35,35H638a35,35,0,0,0,35-35V1091a35,35,0,0,0-35-35h0Z"
          transform="translate(-552.77 -1056.01)"/>
    <path
          d="M630.88,1095.35v41.55h-10v-41.55h10m0-5h-10a5,5,0,0,0-5,5v41.55a5,5,0,0,0,5,5h10a5,5,0,0,0,5-5v-41.55a5,5,0,0,0-5-5h0Z"
          transform="translate(-552.77 -1056.01)"/>
    <path
          d="M604.89,1095.35v41.55h-10v-41.55h10m0-5h-10a5,5,0,0,0-5,5v41.55a5,5,0,0,0,5,5h10a5,5,0,0,0,5-5v-41.55a5,5,0,0,0-5-5h0Z"
          transform="translate(-552.77 -1056.01)"/>
    </g>
</svg>