<svg id="1773ad6b-2c70-4a4a-8bdb-8a758c26a6e1" data-name="Слой 1" xmlns="http://www.w3.org/2000/svg"
     viewBox="0 0 120.23 120.23">
    <title>play</title>
    <style>
        #playBtn{
            fill: #fff;
        }
        #playBtn:hover{
            fill: #dcdcdc;
        }
    </style>
    <g id="playBtn">
        <path d="M468.36,1063a28,28,0,0,1,28,28v50.23a28,28,0,0,1-28,28H418.14a28,28,0,0,1-28-28V1091a28,28,0,0,1,28-28h50.23m0-7H418.14a35,35,0,0,0-35,35v50.23a35,35,0,0,0,35,35h50.23a35,35,0,0,0,35-35V1091a35,35,0,0,0-35-35h0Z"
              transform="translate(-383.14 -1056.01)"/>
        <path d="M429.87,1092.59l40.76,23.53-40.76,23.53v-47.07m0-6a6,6,0,0,0-6,6v47.07a6,6,0,0,0,9,5.2l40.76-23.53a6,6,0,0,0,0-10.39l-40.76-23.53a6,6,0,0,0-3-.8h0Z"
              transform="translate(-383.14 -1056.01)"/>
    </g>
</svg>